<svg width="40" height="40" viewBox="0 0 40 40" fill="none" xmlns="http://www.w3.org/2000/svg">
<circle cx="20" cy="20" r="20" fill="#0069EC"/>
<path d="M28.7833 27.4208H28.5314V17.2922C28.5314 16.645 28.0054 16.1222 27.3614 16.1222H23.5866C23.5866 15.526 23.4878 14.9394 23.2901 14.391C22.6748 12.6535 21.6323 11.2029 20.1977 10.0775C20.1754 10.0584 20.1467 10.0393 20.1244 10.0297C20.0192 9.97869 19.8916 9.99463 19.7992 10.068C19.796 10.0711 19.7896 10.0743 19.7864 10.0775C18.355 11.2029 17.3156 12.6503 16.694 14.3878C16.4963 14.9394 16.4007 15.5292 16.4007 16.1254H12.7311C12.084 16.1254 11.5611 16.6514 11.5611 17.2954V27.424H11.3061C11.1371 27.424 11 27.5611 11 27.7301V28.8874C11 29.4995 11.4973 30 12.1126 30H27.9767C28.5888 30 29.0893 29.5027 29.0893 28.8874V27.7301C29.0893 27.5579 28.9522 27.4208 28.7833 27.4208ZM19.0117 26.203C19.1137 26.1488 19.1775 26.0467 19.1775 25.932V24.8703H20.9756V25.8236C20.9756 25.9288 21.0298 26.0244 21.1159 26.0818C21.2051 26.1392 21.3135 26.1456 21.4092 26.1009C21.5176 26.0531 21.6387 26.0244 21.7599 26.0244C22.2062 26.0244 22.5792 26.3592 22.6238 26.8055C22.6334 26.9107 22.6972 27 22.7928 27.0478C22.8853 27.0924 22.9968 27.0893 23.0893 27.0351C23.2232 26.9554 23.3762 26.9139 23.5356 26.9139C23.8831 26.9139 24.186 27.1211 24.3231 27.4208H15.6706C15.8077 27.1211 16.1073 26.9139 16.458 26.9139C16.6079 26.9139 16.7545 26.9522 16.8852 27.0255C16.9745 27.0733 17.0829 27.0765 17.1754 27.0287C17.2678 26.9809 17.3284 26.8916 17.338 26.7928C17.389 26.356 17.7588 26.0276 18.2019 26.0276C18.3805 26.0276 18.5494 26.0818 18.6929 26.1838C18.7854 26.2476 18.9097 26.2572 19.0117 26.203ZM27.9193 17.2922V27.4208H24.9703C24.8077 26.7736 24.2275 26.2986 23.5356 26.2986C23.4017 26.2986 23.271 26.3177 23.1435 26.3528C22.9267 25.7949 22.3879 25.4123 21.763 25.4123C21.7057 25.4123 21.6483 25.4155 21.5909 25.4219V24.8671H21.7152C22.0882 24.8671 22.4102 24.5866 22.4644 24.22L22.6047 23.2572C23.2678 23.7481 23.8513 24.3953 24.3422 25.186C24.4283 25.323 24.575 25.4027 24.7312 25.4027C24.7567 25.4027 24.7854 25.3996 24.8109 25.3964C24.999 25.3645 25.1488 25.221 25.1871 25.0361C25.3911 24.0924 25.3592 23.0722 25.0882 22.001C25.0851 21.9883 25.0819 21.9787 25.0787 21.966C24.6578 20.8565 24.0107 20.0244 23.1594 19.4761L23.5356 16.916C23.5452 16.8554 23.5516 16.7949 23.558 16.7343H27.3645C27.6674 16.7343 27.9193 16.9861 27.9193 17.2922ZM23.0574 20.1551C23.6791 20.627 24.1637 21.2997 24.4984 22.17C24.7057 23.0021 24.7567 23.7991 24.6515 24.5451C24.0967 23.7354 23.4432 23.0754 22.7035 22.5813L23.0574 20.1551ZM19.9936 10.6992C20.6472 11.2348 21.2051 11.8501 21.6674 12.5324C20.5643 12.3666 19.4453 12.3634 18.3231 12.5292C18.3263 12.526 18.3199 12.526 18.3199 12.526C18.7885 11.8437 19.3465 11.2348 19.9936 10.6992ZM17.2742 14.5919C17.4464 14.1137 17.6536 13.661 17.8927 13.2274C19.305 12.95 20.7142 12.95 22.0914 13.2274C22.3305 13.661 22.5409 14.1137 22.7099 14.5951C22.9618 15.2965 23.0351 16.068 22.9235 16.8267L21.8523 24.1307C21.8427 24.2008 21.779 24.255 21.7088 24.255H18.2784C18.2051 24.255 18.1445 24.204 18.135 24.1307L17.9246 22.6897C17.9246 22.6833 17.9246 22.6801 17.9214 22.6737L17.4719 19.594L17.067 16.8299C16.9522 16.0648 17.0255 15.2933 17.2742 14.5919ZM17.2869 22.5813C16.5473 23.0754 15.8906 23.7322 15.339 24.5451C15.2338 23.7991 15.2848 23.0021 15.492 22.17C15.8268 21.2965 16.3114 20.6238 16.9299 20.1551L17.2869 22.5813ZM12.1732 17.2922C12.1732 16.983 12.4219 16.7343 12.7311 16.7343H16.4389C16.4453 16.7949 16.4517 16.8554 16.4612 16.916L16.8342 19.4761C15.9862 20.018 15.339 20.8533 14.915 21.966C14.9118 21.9755 14.9086 21.9883 14.9054 22.001C14.6344 23.0691 14.6026 24.0924 14.8066 25.0361C14.848 25.2242 14.9947 25.3645 15.1828 25.3964C15.2083 25.3996 15.237 25.4027 15.2625 25.4027C15.4187 25.4027 15.5654 25.323 15.6514 25.186C16.1424 24.3953 16.7258 23.7513 17.3858 23.2572L17.5261 24.2168C17.5803 24.5866 17.9022 24.864 18.2784 24.864H18.5654V25.4538C18.4474 25.4251 18.3263 25.4091 18.2019 25.4091C17.5803 25.4091 17.0415 25.7917 16.8247 26.3432C16.7067 26.3145 16.5824 26.2986 16.458 26.2986C15.7662 26.2986 15.186 26.7704 15.0234 27.4208H12.1732V17.2922ZM28.4772 28.8874C28.4772 29.1615 28.254 29.3847 27.9767 29.3847H12.1126C11.8385 29.3847 11.6153 29.1615 11.6153 28.8874V28.0361H28.4772V28.8874Z" fill="white"/>
<path d="M21.5981 28.4033H18.4897C18.3207 28.4033 18.1836 28.5404 18.1836 28.7094C18.1836 28.8783 18.3207 29.0154 18.4897 29.0154H21.5981C21.767 29.0154 21.9041 28.8783 21.9041 28.7094C21.9041 28.5404 21.7702 28.4033 21.5981 28.4033Z" fill="white"/>
<path d="M19.9508 18.1438C21.0188 18.1438 21.886 17.2766 21.886 16.2086C21.886 15.1406 21.0188 14.2734 19.9508 14.2734C18.8828 14.2734 18.0156 15.1406 18.0156 16.2086C18.0124 17.2734 18.8828 18.1438 19.9508 18.1438ZM19.9508 14.8824C20.6809 14.8824 21.2739 15.4754 21.2739 16.2054C21.2739 16.9355 20.6809 17.5285 19.9508 17.5285C19.2207 17.5285 18.6278 16.9355 18.6278 16.2054C18.6278 15.4754 19.2207 14.8824 19.9508 14.8824Z" fill="white"/>
<path d="M24.2061 11.8759L24.324 11.758V13.8844C24.324 14.0534 24.4611 14.1905 24.6301 14.1905C24.7991 14.1905 24.9362 14.0534 24.9362 13.8844V11.7612L25.0541 11.8791C25.1147 11.9397 25.1912 11.9684 25.2709 11.9684C25.3506 11.9684 25.4271 11.9397 25.4877 11.8791C25.6089 11.758 25.6089 11.5667 25.4877 11.4455L24.8469 10.8047C24.7257 10.6836 24.5345 10.6836 24.4133 10.8047L23.7725 11.4455C23.6514 11.5667 23.6514 11.758 23.7725 11.8791C23.8905 11.9971 24.0849 11.9971 24.2061 11.8759Z" fill="white"/>
<path d="M15.0323 12.874L15.1502 12.756V14.8825C15.1502 15.0514 15.2873 15.1885 15.4563 15.1885C15.6252 15.1885 15.7623 15.0514 15.7623 14.8825V12.756L15.8803 12.874C15.9409 12.9345 16.0174 12.9632 16.0971 12.9632C16.1768 12.9632 16.2533 12.9345 16.3139 12.874C16.435 12.7528 16.435 12.5615 16.3139 12.4404L15.6731 11.7996C15.5583 11.6848 15.3543 11.6848 15.2395 11.7996L14.5987 12.4404C14.4775 12.5615 14.4775 12.7528 14.5987 12.874C14.7198 12.9919 14.9111 12.9919 15.0323 12.874Z" fill="white"/>
</svg>
