<svg width="40" height="40" viewBox="0 0 40 40" fill="none" xmlns="http://www.w3.org/2000/svg">
<circle cx="20" cy="20" r="20" fill="#0069EC"/>
<path d="M27.2421 24.9961C27.5976 24.5072 27.7903 23.9188 27.7929 23.3143C27.7967 23.2348 27.7688 23.1571 27.7153 23.0982C27.6618 23.0393 27.587 23.004 27.5076 23.0002C27.3427 22.9941 27.2031 23.1208 27.1935 23.2855C27.1957 23.7646 27.0481 24.2324 26.7714 24.6235C26.1861 25.3627 25.0755 25.4002 24.8586 25.4002C24.6929 25.4002 24.5586 25.5345 24.5586 25.7002C24.5586 25.8659 24.6929 26.0002 24.8586 26.0002C25.1238 26.0002 26.4849 25.9519 27.2421 24.9961Z" fill="white"/>
<path d="M21.1996 21.2001C21.1996 21.0344 21.0653 20.9001 20.8996 20.9001C20.7339 20.9001 20.5996 21.0344 20.5996 21.2001C20.5996 21.8628 21.1369 22.4 21.7996 22.4V22.7C21.7996 22.8657 21.9339 23 22.0996 23C22.2653 23 22.3996 22.8657 22.3996 22.7V22.4C23.0623 22.4 23.5996 21.8628 23.5996 21.2001C23.5996 20.5373 23.0623 20.0001 22.3996 20.0001V18.8001C22.731 18.8001 22.9996 19.0687 22.9996 19.4001C22.9996 19.5658 23.1339 19.7001 23.2996 19.7001C23.4653 19.7001 23.5996 19.5658 23.5996 19.4001C23.5996 18.7373 23.0623 18.2001 22.3996 18.2001V17.9001C22.3996 17.7344 22.2653 17.6001 22.0996 17.6001C21.9339 17.6001 21.7996 17.7344 21.7996 17.9001V18.2001C21.1369 18.2001 20.5996 18.7373 20.5996 19.4001C20.5996 20.0628 21.1369 20.6001 21.7996 20.6001V21.8C21.4682 21.8 21.1996 21.5314 21.1996 21.2001ZM21.1996 19.4001C21.1996 19.0687 21.4682 18.8001 21.7996 18.8001V20.0001C21.4682 20.0001 21.1996 19.7314 21.1996 19.4001ZM22.3996 20.6001C22.731 20.6001 22.9996 20.8687 22.9996 21.2001C22.9996 21.5314 22.731 21.8 22.3996 21.8V20.6001Z" fill="white"/>
<path d="M28.749 21.1314C28.0098 17.9901 26.3664 16.1701 25.1796 15.2194C26.6679 15.3316 27.147 15.9508 27.1611 15.9694C27.2551 16.1035 27.4393 16.1375 27.575 16.0457C27.7106 15.9538 27.7475 15.7702 27.6579 15.6331C27.6363 15.6007 27.2196 15.0055 26.0079 14.7331C26.3177 14.4784 26.501 14.1012 26.5098 13.7002C26.4697 13.0354 26.0069 12.4716 25.3626 12.3028C25.389 12.0861 25.4025 11.868 25.4028 11.6497C25.4025 11.4486 25.3014 11.261 25.1336 11.1501C24.9659 11.0392 24.7537 11.0198 24.5685 11.0983C24.4171 11.1669 24.2764 11.2571 24.1509 11.3662C24.0037 11.5175 23.801 11.6021 23.5899 11.6002C23.3792 11.6017 23.1769 11.5172 23.0299 11.3662C22.5012 10.8779 21.686 10.8779 21.1573 11.3662C21.01 11.5178 20.807 11.6024 20.5957 11.6002C20.385 11.602 20.1827 11.5174 20.0359 11.3662C19.9107 11.2574 19.7705 11.1672 19.6195 11.0986C19.4345 11.0206 19.2227 11.0403 19.0552 11.1512C18.8878 11.262 18.7869 11.4492 18.7864 11.65C18.7864 12.3964 18.934 13.7278 19.8685 14.6218C19.3774 14.9204 18.9187 15.2694 18.4999 15.6631V13.4002C18.4999 12.7162 17.5324 12.2002 16.2499 12.2002C14.9675 12.2002 14 12.7162 14 13.4002V16.4227C12.9479 16.5277 12.2 17.0001 12.2 17.6001V25.2305C11.4752 25.4252 11 25.82 11 26.3V27.8C11 28.484 11.9675 29 13.25 29C14.3969 29 15.2899 28.5869 15.466 28.01C15.9839 28.2842 16.5643 28.4186 17.1499 28.4C18.4324 28.4 19.3999 27.884 19.3999 27.2V23.3001C19.3999 22.6161 18.4324 22.1001 17.1499 22.1001C16.9996 22.1 16.8495 22.1075 16.6999 22.1226V17.6001C16.6999 16.9431 15.8068 16.4428 14.6 16.4041V14.2309C15.1103 14.4903 15.6777 14.6173 16.2499 14.6002C16.8222 14.6173 17.3896 14.4903 17.8999 14.2309V16.2769C17.7022 16.498 17.5036 16.7389 17.3077 17.0058C17.218 17.1394 17.2497 17.32 17.3795 17.4151C17.5093 17.5102 17.691 17.4859 17.7913 17.3601C17.984 17.0993 18.1905 16.8489 18.4099 16.6102C18.4123 16.6075 18.4144 16.6048 18.4168 16.6024C18.9895 15.9659 19.662 15.427 20.4079 15.0067C20.5549 15.0776 20.7105 15.1293 20.8708 15.1606L20.0974 15.8824C19.9763 15.9955 19.9698 16.1854 20.083 16.3066C20.1961 16.4277 20.3861 16.4341 20.5072 16.321L21.7072 15.2017H21.8029V16.1017C21.8029 16.2673 21.9372 16.4017 22.1029 16.4017C22.2685 16.4017 22.4029 16.2673 22.4029 16.1017V15.2002H22.4986L23.6985 16.3195C23.7769 16.3927 23.8883 16.4185 23.9909 16.3873C24.0935 16.356 24.1716 16.2724 24.1958 16.168C24.22 16.0635 24.1867 15.9541 24.1083 15.8809L23.3298 15.1561C23.4891 15.1245 23.6437 15.0726 23.7897 15.0016C24.5826 15.4306 27.189 17.1255 28.1652 21.2688C28.5897 23.0724 28.4367 24.4521 27.7107 25.3685C26.7819 26.54 25.1703 26.6 24.8568 26.6H20.5999C20.4342 26.6 20.2999 26.7343 20.2999 26.9C20.2999 27.0657 20.4342 27.2 20.5999 27.2H24.8568C25.3668 27.2 27.1083 27.0947 28.1808 25.7411C29.0262 24.6735 29.2176 23.1225 28.749 21.1314ZM13.25 25.7C14.2421 25.7 14.9 26.06 14.9 26.3C14.9 26.54 14.2421 26.9 13.25 26.9C12.2579 26.9 11.6 26.54 11.6 26.3C11.6 26.06 12.2579 25.7 13.25 25.7ZM13.25 28.4C12.2579 28.4 11.6 28.04 11.6 27.8V27.1307C12.1104 27.3901 12.6777 27.5171 13.25 27.5C13.8222 27.5171 14.3896 27.3901 14.9 27.1307V27.8C14.9 28.04 14.2421 28.4 13.25 28.4ZM17.1499 27.8C16.1578 27.8 15.4999 27.44 15.4999 27.2V24.1308C16.0103 24.3902 16.5777 24.5172 17.1499 24.5001C17.7222 24.5172 18.2895 24.3902 18.7999 24.1308V27.2C18.7999 27.44 18.142 27.8 17.1499 27.8ZM18.7999 23.3001C18.7999 23.5401 18.142 23.9001 17.1499 23.9001C16.1578 23.9001 15.4999 23.5401 15.4999 23.3001C15.4999 23.0601 16.1578 22.7001 17.1499 22.7001C18.142 22.7001 18.7999 23.0601 18.7999 23.3001ZM14.9 23.3001V25.4693C14.3896 25.2099 13.8222 25.083 13.25 25.1C13.0997 25.0999 12.9495 25.1075 12.8 25.1225V18.4308C13.3103 18.6902 13.8777 18.8172 14.45 18.8001C15.0222 18.8172 15.5896 18.6902 16.0999 18.4308V22.2306C15.3751 22.4253 14.9 22.8201 14.9 23.3001ZM16.0999 17.6001C16.0999 17.8401 15.442 18.2001 14.45 18.2001C13.4579 18.2001 12.8 17.8401 12.8 17.6001C12.8 17.3601 13.4579 17.0001 14.45 17.0001C15.442 17.0001 16.0999 17.3601 16.0999 17.6001ZM16.2499 14.0002C15.2578 14.0002 14.6 13.6402 14.6 13.4002C14.6 13.1602 15.2578 12.8002 16.2499 12.8002C17.242 12.8002 17.8999 13.1602 17.8999 13.4002C17.8999 13.6402 17.242 14.0002 16.2499 14.0002ZM25.9098 13.7002C25.9098 14.1919 25.3773 14.5954 24.7098 14.6002C24.5982 14.5995 24.4869 14.5867 24.378 14.5621C24.8134 14.0976 25.1161 13.5246 25.2543 12.9031C25.6154 13.0095 25.8752 13.3253 25.9098 13.7002ZM19.6603 11.8342C19.9136 12.0716 20.2485 12.2026 20.5957 12.2002C20.9431 12.2028 21.2782 12.0718 21.5317 11.8342C21.68 11.6845 21.8819 11.6003 22.0927 11.6003C22.3034 11.6003 22.5054 11.6845 22.6537 11.8342C22.9071 12.072 23.2424 12.203 23.5899 12.2002C23.9374 12.2029 24.2727 12.0719 24.5262 11.8342C24.6094 11.7607 24.7019 11.6986 24.8013 11.6494C24.8013 12.2065 24.6978 13.5838 23.7312 14.3389C23.5138 14.5022 23.2502 14.5924 22.9783 14.5966C23.238 14.1505 23.4435 13.6751 23.5905 13.1803C23.6193 13.077 23.5907 12.9662 23.5156 12.8896C23.4405 12.8131 23.3302 12.7825 23.2264 12.8092C23.1225 12.836 23.0409 12.9162 23.0122 13.0195C22.846 13.5834 22.5906 14.1171 22.2556 14.6002H21.9472C21.6128 14.1167 21.3573 13.5831 21.1903 13.0195C21.1458 12.8599 20.9803 12.7665 20.8207 12.811C20.661 12.8555 20.5677 13.021 20.6122 13.1806C20.7594 13.6758 20.9651 14.1516 21.2251 14.5981C20.9477 14.5967 20.6782 14.5059 20.4565 14.3392C19.4899 13.5844 19.3864 12.2071 19.3864 11.6518C19.4858 11.6994 19.578 11.7608 19.6603 11.8342Z" fill="white"/>
<path d="M27.2421 24.9961C27.5976 24.5072 27.7903 23.9188 27.7929 23.3143C27.7967 23.2348 27.7688 23.157 27.7153 23.0981C27.6618 23.0392 27.587 23.004 27.5076 23.0002C27.3428 22.9944 27.2034 23.1209 27.1935 23.2855C27.1957 23.7646 27.0481 24.2324 26.7714 24.6235C26.1861 25.3627 25.0755 25.4002 24.8586 25.4002C24.6929 25.4002 24.5586 25.5345 24.5586 25.7002C24.5586 25.8658 24.6929 26.0002 24.8586 26.0002C25.1238 26.0002 26.4849 25.9519 27.2421 24.9961Z" fill="white"/>
</svg>
