<svg width="40" height="40" viewBox="0 0 40 40" fill="none" xmlns="http://www.w3.org/2000/svg">
<circle cx="20" cy="20" r="20" fill="#0069EC"/>
<path d="M27.9093 14.2809C25.2951 13.5646 22.6656 12.4493 20.3049 11.0555C20.1796 10.9815 20.024 10.9815 19.8986 11.0555C17.4699 12.4893 14.9824 13.5443 12.2941 14.2809C12.1204 14.3284 12 14.4863 12 14.6664V18.7501C12 22.9554 13.94 25.7391 15.5676 27.3337C17.3197 29.0506 19.3607 30 20.1018 30C20.8427 30 22.8837 29.0506 24.6359 27.3337C26.2634 25.7391 28.2033 22.9555 28.2033 18.7501V14.6663C28.2033 14.4863 28.0829 14.3284 27.9093 14.2809ZM27.404 18.7501C27.404 22.6778 25.5945 25.2753 24.0764 26.7627C22.3534 28.451 20.5112 29.2006 20.1018 29.2006C19.6923 29.2006 17.85 28.451 16.127 26.7627C14.6089 25.2752 12.7994 22.6778 12.7994 18.7501V14.9697C15.3702 14.2398 17.7644 13.2211 20.1018 11.8628C22.3809 13.1851 24.8945 14.2544 27.404 14.9696V18.7501Z" fill="white"/>
<path d="M17.3775 19.6846C17.1321 19.4392 16.8057 19.3041 16.4586 19.3041C16.1115 19.3041 15.7851 19.4392 15.5395 19.6846C15.0329 20.1914 15.0329 21.0159 15.5395 21.5227L17.8995 23.8826C18.145 24.128 18.4714 24.2631 18.8185 24.2631C19.1657 24.2631 19.492 24.128 19.7375 23.8825L24.6642 18.9558C25.1708 18.4489 25.1708 17.6245 24.6641 17.1179C24.4187 16.8725 24.0923 16.7374 23.7451 16.7374C23.3979 16.7374 23.0716 16.8725 22.8261 17.1179L18.8185 21.1255L17.3775 19.6846ZM23.3913 17.6831C23.4858 17.5887 23.6115 17.5367 23.7451 17.5367C23.8789 17.5367 24.0045 17.5887 24.099 17.6831C24.294 17.8782 24.294 18.1956 24.0989 18.3907L19.1723 23.3173C19.0779 23.4117 18.9522 23.4637 18.8185 23.4637C18.6848 23.4637 18.5592 23.4117 18.4647 23.3173L16.1047 20.9574C15.9097 20.7624 15.9097 20.4449 16.1047 20.2499C16.1992 20.1555 16.3248 20.1034 16.4585 20.1034C16.5923 20.1034 16.7179 20.1554 16.8123 20.2498L18.5359 21.9734C18.6108 22.0484 18.7125 22.0905 18.8185 22.0905C18.9245 22.0905 19.0261 22.0484 19.101 21.9734L23.3913 17.6831Z" fill="white"/>
</svg>
